<svg width="20" height="9" viewBox="0 0 20 9" fill="none" xmlns="http://www.w3.org/2000/svg">
<path d="M1.46191 1C1.46191 1 4.69266 4.90375 10.2311 4.78944C15.7695 4.67513 18.5387 1 18.5387 1" stroke="black" stroke-linecap="round"/>
<path fill-rule="evenodd" clip-rule="evenodd" d="M1.07022 6.2512L3.37789 2.88281L4.16065 3.32912L1.85298 6.69751C1.71788 6.8947 1.43314 6.95465 1.21698 6.83141C1.00083 6.70816 0.93512 6.44839 1.07022 6.2512Z" fill="black"/>
<path fill-rule="evenodd" clip-rule="evenodd" d="M18.9298 6.2512L16.6221 2.88281L15.8393 3.32912L18.147 6.69751C18.2821 6.8947 18.5669 6.95465 18.783 6.83141C18.9992 6.70816 19.0649 6.44839 18.9298 6.2512Z" fill="black"/>
<path fill-rule="evenodd" clip-rule="evenodd" d="M6.54948 8.48826L7.47255 4.69882L8.37364 4.8815L7.45057 8.67094C7.39527 8.89794 7.14873 9.04107 6.8999 8.99062C6.65107 8.94018 6.49418 8.71526 6.54948 8.48826Z" fill="black"/>
<path fill-rule="evenodd" clip-rule="evenodd" d="M13.9121 8.48826L12.989 4.69882L12.0879 4.8815L13.011 8.67094C13.0663 8.89794 13.3128 9.04107 13.5616 8.99062C13.8105 8.94018 13.9674 8.71526 13.9121 8.48826Z" fill="black"/>
</svg>
